<svg xmlns="http://www.w3.org/2000/svg" viewBox="0 0 760 180" fill="none">
  <rect width="760" height="180" rx="16" fill="transparent"/>
  <g transform="translate(18,18)">
    <path d="M52 6C29 18 10 41 10 74c0 17 5 31 13 43 9 13 21 23 34 30v-46L28 72a7 7 0 1 1 10-10l19 19V56a7 7 0 1 1 14 0v25l19-19a7 7 0 1 1 10 10L71 101v46c13-7 25-17 34-30 8-12 13-26 13-43 0-33-19-56-42-68C67 2 61 0 64 0c-3 0-8 2-12 6Z" fill="#22c55e"/>
    <rect x="0" y="104" width="42" height="34" rx="6" stroke="#22c55e" stroke-width="5"/>
    <circle cx="14" cy="121" r="3" fill="#38bdf8"/>
    <circle cx="28" cy="121" r="3" fill="#38bdf8"/>
    <path d="M42 121h18" stroke="#22c55e" stroke-width="5" stroke-linecap="round"/>
    <rect x="98" y="74" width="34" height="52" rx="6" stroke="#22c55e" stroke-width="5"/>
    <path d="M114 86v20m0 0c-5 0-7 3-7 8m7-8c5 0 7 3 7 8" stroke="#22c55e" stroke-width="4" stroke-linecap="round"/>
    <rect x="58" y="125" width="20" height="22" rx="4" stroke="#22c55e" stroke-width="5"/>
    <path d="M78 136h12m42-35h-12" stroke="#22c55e" stroke-width="5" stroke-linecap="round"/>
  </g>
  <g fill="#f8fafc" font-family="Inter, Arial, sans-serif" font-weight="800" letter-spacing="2">
    <text x="180" y="92" font-size="78">JUNGLE</text>
    <text x="180" y="162" font-size="78">LABS</text>
  </g>
</svg>
